<mxfile host="app.diagrams.net" modified="2022-06-27T07:07:38.851Z" agent="5.0 (Windows NT 10.0; Win64; x64) AppleWebKit/537.36 (KHTML, like Gecko) Chrome/102.0.0.0 Safari/537.36" etag="uy9x3HhwWQ2FJNPNLc0t" version="20.0.3" type="github">
  <diagram name="Page-1" id="2c0d36ab-eaac-3732-788b-9136903baeff">
    <mxGraphModel dx="1422" dy="762" grid="1" gridSize="10" guides="1" tooltips="1" connect="1" arrows="1" fold="1" page="1" pageScale="1.5" pageWidth="900" pageHeight="3000" background="none" math="0" shadow="0">
      <root>
        <mxCell id="0" />
        <mxCell id="1" parent="0" />
        <mxCell id="QHkX6387ASyejE84PATi-134" value="&lt;font style=&quot;font-size: 25px;&quot;&gt;src&lt;/font&gt;" style="rounded=1;whiteSpace=wrap;html=1;" parent="1" vertex="1">
          <mxGeometry x="30" y="530" width="120" height="60" as="geometry" />
        </mxCell>
        <mxCell id="QHkX6387ASyejE84PATi-137" value="&lt;font style=&quot;font-size: 25px;&quot;&gt;assets&lt;/font&gt;" style="rounded=1;whiteSpace=wrap;html=1;" parent="1" vertex="1">
          <mxGeometry x="210" y="260" width="170" height="60" as="geometry" />
        </mxCell>
        <mxCell id="QHkX6387ASyejE84PATi-138" value="&lt;font style=&quot;font-size: 25px;&quot;&gt;common&lt;/font&gt;" style="rounded=1;whiteSpace=wrap;html=1;" parent="1" vertex="1">
          <mxGeometry x="210" y="330" width="170" height="60" as="geometry" />
        </mxCell>
        <mxCell id="QHkX6387ASyejE84PATi-139" value="&lt;font style=&quot;font-size: 25px;&quot;&gt;components&lt;/font&gt;" style="rounded=1;whiteSpace=wrap;html=1;" parent="1" vertex="1">
          <mxGeometry x="210" y="590" width="170" height="60" as="geometry" />
        </mxCell>
        <mxCell id="QHkX6387ASyejE84PATi-140" value="&lt;font style=&quot;font-size: 25px;&quot;&gt;layouts&lt;/font&gt;" style="rounded=1;whiteSpace=wrap;html=1;" parent="1" vertex="1">
          <mxGeometry x="210" y="1216" width="170" height="60" as="geometry" />
        </mxCell>
        <mxCell id="QHkX6387ASyejE84PATi-141" value="&lt;font style=&quot;font-size: 25px;&quot;&gt;plugins&lt;/font&gt;" style="rounded=1;whiteSpace=wrap;html=1;" parent="1" vertex="1">
          <mxGeometry x="210" y="400" width="170" height="60" as="geometry" />
        </mxCell>
        <mxCell id="QHkX6387ASyejE84PATi-142" value="&lt;font style=&quot;font-size: 25px;&quot;&gt;router&lt;/font&gt;" style="rounded=1;whiteSpace=wrap;html=1;" parent="1" vertex="1">
          <mxGeometry x="210" y="2520" width="170" height="60" as="geometry" />
        </mxCell>
        <mxCell id="QHkX6387ASyejE84PATi-143" value="&lt;span style=&quot;font-size: 25px;&quot;&gt;store&lt;/span&gt;" style="rounded=1;whiteSpace=wrap;html=1;" parent="1" vertex="1">
          <mxGeometry x="210" y="3320" width="170" height="60" as="geometry" />
        </mxCell>
        <mxCell id="QHkX6387ASyejE84PATi-145" value="&lt;font style=&quot;font-size: 25px;&quot;&gt;views&lt;/font&gt;" style="rounded=1;whiteSpace=wrap;html=1;" parent="1" vertex="1">
          <mxGeometry x="210" y="3570" width="170" height="60" as="geometry" />
        </mxCell>
        <mxCell id="QHkX6387ASyejE84PATi-148" value="App.vue" style="rounded=0;whiteSpace=wrap;html=1;fontSize=25;" parent="1" vertex="1">
          <mxGeometry x="210" y="4300" width="120" height="60" as="geometry" />
        </mxCell>
        <mxCell id="QHkX6387ASyejE84PATi-149" value="&lt;font style=&quot;font-size: 25px;&quot;&gt;public&lt;/font&gt;" style="rounded=1;whiteSpace=wrap;html=1;" parent="1" vertex="1">
          <mxGeometry x="210" y="190" width="170" height="60" as="geometry" />
        </mxCell>
        <mxCell id="QHkX6387ASyejE84PATi-150" value="&lt;font style=&quot;font-size: 25px;&quot;&gt;node_modules&lt;/font&gt;" style="rounded=1;whiteSpace=wrap;html=1;" parent="1" vertex="1">
          <mxGeometry x="210" y="120" width="170" height="60" as="geometry" />
        </mxCell>
        <mxCell id="QHkX6387ASyejE84PATi-152" value="" style="edgeStyle=elbowEdgeStyle;elbow=horizontal;endArrow=classic;html=1;rounded=0;fontSize=25;exitX=1;exitY=0.5;exitDx=0;exitDy=0;" parent="1" source="QHkX6387ASyejE84PATi-137" edge="1">
          <mxGeometry width="50" height="50" relative="1" as="geometry">
            <mxPoint x="390" y="300" as="sourcePoint" />
            <mxPoint x="480" y="290" as="targetPoint" />
          </mxGeometry>
        </mxCell>
        <mxCell id="QHkX6387ASyejE84PATi-153" value="" style="edgeStyle=elbowEdgeStyle;elbow=horizontal;endArrow=classic;html=1;rounded=0;fontSize=25;exitX=1;exitY=0.5;exitDx=0;exitDy=0;" parent="1" edge="1">
          <mxGeometry width="50" height="50" relative="1" as="geometry">
            <mxPoint x="380" y="219.57999999999998" as="sourcePoint" />
            <mxPoint x="480" y="219.57999999999998" as="targetPoint" />
          </mxGeometry>
        </mxCell>
        <mxCell id="QHkX6387ASyejE84PATi-154" value="index.html #app" style="rounded=0;whiteSpace=wrap;html=1;fontSize=25;" parent="1" vertex="1">
          <mxGeometry x="480" y="190" width="210" height="60" as="geometry" />
        </mxCell>
        <mxCell id="QHkX6387ASyejE84PATi-156" value="&lt;font style=&quot;font-size: 25px;&quot;&gt;images&lt;/font&gt;" style="rounded=1;whiteSpace=wrap;html=1;" parent="1" vertex="1">
          <mxGeometry x="480" y="260" width="170" height="60" as="geometry" />
        </mxCell>
        <mxCell id="QHkX6387ASyejE84PATi-157" value="" style="edgeStyle=elbowEdgeStyle;elbow=horizontal;endArrow=classic;html=1;rounded=0;fontSize=25;exitX=1;exitY=0.5;exitDx=0;exitDy=0;" parent="1" edge="1">
          <mxGeometry width="50" height="50" relative="1" as="geometry">
            <mxPoint x="380" y="149.58" as="sourcePoint" />
            <mxPoint x="480" y="149.58" as="targetPoint" />
          </mxGeometry>
        </mxCell>
        <mxCell id="QHkX6387ASyejE84PATi-158" value="&lt;font style=&quot;font-size: 25px;&quot;&gt;dependecies..&lt;/font&gt;" style="rounded=1;whiteSpace=wrap;html=1;" parent="1" vertex="1">
          <mxGeometry x="480" y="120" width="190" height="60" as="geometry" />
        </mxCell>
        <mxCell id="QHkX6387ASyejE84PATi-159" value="&lt;font style=&quot;font-size: 25px;&quot;&gt;js (보류)&lt;/font&gt;" style="rounded=1;whiteSpace=wrap;html=1;" parent="1" vertex="1">
          <mxGeometry x="480" y="330" width="170" height="60" as="geometry" />
        </mxCell>
        <mxCell id="QHkX6387ASyejE84PATi-160" value="" style="edgeStyle=elbowEdgeStyle;elbow=horizontal;endArrow=classic;html=1;rounded=0;fontSize=25;exitX=1;exitY=0.5;exitDx=0;exitDy=0;" parent="1" edge="1">
          <mxGeometry width="50" height="50" relative="1" as="geometry">
            <mxPoint x="380" y="358.82" as="sourcePoint" />
            <mxPoint x="480" y="358.82" as="targetPoint" />
          </mxGeometry>
        </mxCell>
        <mxCell id="QHkX6387ASyejE84PATi-161" value="" style="edgeStyle=elbowEdgeStyle;elbow=horizontal;endArrow=classic;html=1;rounded=0;fontSize=25;entryX=0;entryY=0.5;entryDx=0;entryDy=0;" parent="1" target="QHkX6387ASyejE84PATi-162" edge="1">
          <mxGeometry width="50" height="50" relative="1" as="geometry">
            <mxPoint x="380" y="610" as="sourcePoint" />
            <mxPoint x="430" y="560" as="targetPoint" />
          </mxGeometry>
        </mxCell>
        <mxCell id="QHkX6387ASyejE84PATi-162" value="&lt;span style=&quot;font-size: 25px;&quot;&gt;dialog&lt;/span&gt;" style="rounded=1;whiteSpace=wrap;html=1;" parent="1" vertex="1">
          <mxGeometry x="480" y="530" width="170" height="60" as="geometry" />
        </mxCell>
        <mxCell id="QHkX6387ASyejE84PATi-163" value="&lt;span style=&quot;font-size: 25px;&quot;&gt;product&lt;/span&gt;" style="rounded=1;whiteSpace=wrap;html=1;" parent="1" vertex="1">
          <mxGeometry x="480" y="630" width="170" height="60" as="geometry" />
        </mxCell>
        <mxCell id="QHkX6387ASyejE84PATi-164" value="&lt;span style=&quot;font-size: 25px;&quot;&gt;slide&lt;/span&gt;" style="rounded=1;whiteSpace=wrap;html=1;" parent="1" vertex="1">
          <mxGeometry x="480" y="720" width="170" height="60" as="geometry" />
        </mxCell>
        <mxCell id="QHkX6387ASyejE84PATi-165" value="ButtonCmp.vue" style="rounded=0;whiteSpace=wrap;html=1;fontSize=25;" parent="1" vertex="1">
          <mxGeometry x="480" y="810" width="210" height="60" as="geometry" />
        </mxCell>
        <mxCell id="QHkX6387ASyejE84PATi-166" value="" style="edgeStyle=elbowEdgeStyle;elbow=horizontal;endArrow=classic;html=1;rounded=0;fontSize=25;" parent="1" edge="1">
          <mxGeometry width="50" height="50" relative="1" as="geometry">
            <mxPoint x="650" y="570" as="sourcePoint" />
            <mxPoint x="700" y="520" as="targetPoint" />
          </mxGeometry>
        </mxCell>
        <mxCell id="QHkX6387ASyejE84PATi-168" value="&lt;span style=&quot;text-align: left;&quot;&gt;SendMsgDialogCmp.vue&lt;/span&gt;" style="rounded=0;whiteSpace=wrap;html=1;fontSize=25;" parent="1" vertex="1">
          <mxGeometry x="700" y="480" width="340" height="60" as="geometry" />
        </mxCell>
        <mxCell id="QHkX6387ASyejE84PATi-170" value="&lt;span style=&quot;text-align: left;&quot;&gt;TermsDialogCmp.vue&lt;/span&gt;" style="rounded=0;whiteSpace=wrap;html=1;fontSize=25;" parent="1" vertex="1">
          <mxGeometry x="700" y="550" width="340" height="60" as="geometry" />
        </mxCell>
        <mxCell id="QHkX6387ASyejE84PATi-171" value="&lt;div style=&quot;text-align: left;&quot;&gt;&lt;span style=&quot;background-color: initial;&quot;&gt;SlideProductItem.vue&lt;/span&gt;&lt;/div&gt;" style="rounded=0;whiteSpace=wrap;html=1;fontSize=25;" parent="1" vertex="1">
          <mxGeometry x="700" y="630" width="340" height="60" as="geometry" />
        </mxCell>
        <mxCell id="QHkX6387ASyejE84PATi-172" value="" style="edgeStyle=elbowEdgeStyle;elbow=horizontal;endArrow=classic;html=1;rounded=0;fontSize=25;exitX=1;exitY=0.75;exitDx=0;exitDy=0;entryX=0;entryY=0.5;entryDx=0;entryDy=0;" parent="1" source="QHkX6387ASyejE84PATi-162" target="QHkX6387ASyejE84PATi-170" edge="1">
          <mxGeometry width="50" height="50" relative="1" as="geometry">
            <mxPoint x="660" y="580" as="sourcePoint" />
            <mxPoint x="710" y="530" as="targetPoint" />
          </mxGeometry>
        </mxCell>
        <mxCell id="QHkX6387ASyejE84PATi-173" value="" style="edgeStyle=elbowEdgeStyle;elbow=horizontal;endArrow=classic;html=1;rounded=0;fontSize=25;exitX=1;exitY=0.5;exitDx=0;exitDy=0;entryX=0;entryY=0.5;entryDx=0;entryDy=0;" parent="1" source="QHkX6387ASyejE84PATi-163" target="QHkX6387ASyejE84PATi-171" edge="1">
          <mxGeometry width="50" height="50" relative="1" as="geometry">
            <mxPoint x="670" y="590" as="sourcePoint" />
            <mxPoint x="720" y="540" as="targetPoint" />
          </mxGeometry>
        </mxCell>
        <mxCell id="QHkX6387ASyejE84PATi-175" value="&lt;div style=&quot;text-align: left;&quot;&gt;SlideDoubleSampleCmp.vue&lt;br&gt;&lt;/div&gt;" style="rounded=0;whiteSpace=wrap;html=1;fontSize=25;" parent="1" vertex="1">
          <mxGeometry x="700" y="720" width="360" height="60" as="geometry" />
        </mxCell>
        <mxCell id="QHkX6387ASyejE84PATi-176" value="" style="edgeStyle=elbowEdgeStyle;elbow=horizontal;endArrow=classic;html=1;rounded=0;fontSize=25;exitX=1;exitY=0.5;exitDx=0;exitDy=0;entryX=0;entryY=0.5;entryDx=0;entryDy=0;" parent="1" edge="1">
          <mxGeometry width="50" height="50" relative="1" as="geometry">
            <mxPoint x="650" y="749.41" as="sourcePoint" />
            <mxPoint x="700" y="749.41" as="targetPoint" />
          </mxGeometry>
        </mxCell>
        <mxCell id="QHkX6387ASyejE84PATi-177" value="" style="edgeStyle=elbowEdgeStyle;elbow=horizontal;endArrow=classic;html=1;rounded=0;fontSize=25;entryX=0;entryY=0.5;entryDx=0;entryDy=0;" parent="1" target="QHkX6387ASyejE84PATi-163" edge="1">
          <mxGeometry width="50" height="50" relative="1" as="geometry">
            <mxPoint x="380" y="620" as="sourcePoint" />
            <mxPoint x="490" y="570" as="targetPoint" />
            <Array as="points">
              <mxPoint x="430" y="660" />
            </Array>
          </mxGeometry>
        </mxCell>
        <mxCell id="QHkX6387ASyejE84PATi-178" value="" style="edgeStyle=elbowEdgeStyle;elbow=horizontal;endArrow=classic;html=1;rounded=0;fontSize=25;entryX=0;entryY=0.5;entryDx=0;entryDy=0;exitX=1;exitY=0.75;exitDx=0;exitDy=0;" parent="1" source="QHkX6387ASyejE84PATi-139" target="QHkX6387ASyejE84PATi-164" edge="1">
          <mxGeometry width="50" height="50" relative="1" as="geometry">
            <mxPoint x="390" y="630" as="sourcePoint" />
            <mxPoint x="490" y="670" as="targetPoint" />
            <Array as="points">
              <mxPoint x="410" y="710" />
            </Array>
          </mxGeometry>
        </mxCell>
        <mxCell id="QHkX6387ASyejE84PATi-179" value="TextFieldCmp.vue" style="rounded=0;whiteSpace=wrap;html=1;fontSize=25;" parent="1" vertex="1">
          <mxGeometry x="480" y="950" width="260" height="60" as="geometry" />
        </mxCell>
        <mxCell id="QHkX6387ASyejE84PATi-180" value="ProductSkeleton.vue" style="rounded=0;whiteSpace=wrap;html=1;fontSize=25;" parent="1" vertex="1">
          <mxGeometry x="480" y="880" width="270" height="60" as="geometry" />
        </mxCell>
        <mxCell id="QHkX6387ASyejE84PATi-181" value="TransitionCmp.vue" style="rounded=0;whiteSpace=wrap;html=1;fontSize=25;" parent="1" vertex="1">
          <mxGeometry x="480" y="1020" width="265" height="60" as="geometry" />
        </mxCell>
        <mxCell id="QHkX6387ASyejE84PATi-182" value="&lt;font style=&quot;font-size: 25px;&quot;&gt;vuetify.js&lt;/font&gt;" style="rounded=1;whiteSpace=wrap;html=1;" parent="1" vertex="1">
          <mxGeometry x="480" y="400" width="170" height="60" as="geometry" />
        </mxCell>
        <mxCell id="QHkX6387ASyejE84PATi-183" value="" style="edgeStyle=elbowEdgeStyle;elbow=horizontal;endArrow=classic;html=1;rounded=0;fontSize=25;exitX=1;exitY=0.5;exitDx=0;exitDy=0;" parent="1" edge="1">
          <mxGeometry width="50" height="50" relative="1" as="geometry">
            <mxPoint x="380" y="428.81999999999994" as="sourcePoint" />
            <mxPoint x="480" y="428.81999999999994" as="targetPoint" />
          </mxGeometry>
        </mxCell>
        <mxCell id="QHkX6387ASyejE84PATi-188" value="&lt;span style=&quot;font-size: 25px;&quot;&gt;auth&lt;/span&gt;" style="rounded=1;whiteSpace=wrap;html=1;" parent="1" vertex="1">
          <mxGeometry x="480" y="1656" width="170" height="60" as="geometry" />
        </mxCell>
        <mxCell id="QHkX6387ASyejE84PATi-189" value="&lt;span style=&quot;font-size: 25px;&quot;&gt;main&lt;/span&gt;" style="rounded=1;whiteSpace=wrap;html=1;" parent="1" vertex="1">
          <mxGeometry x="480" y="1795" width="170" height="60" as="geometry" />
        </mxCell>
        <mxCell id="QHkX6387ASyejE84PATi-190" value="&lt;span style=&quot;font-size: 25px;&quot;&gt;base&lt;/span&gt;" style="rounded=1;whiteSpace=wrap;html=1;" parent="1" vertex="1">
          <mxGeometry x="480" y="1210" width="170" height="60" as="geometry" />
        </mxCell>
        <mxCell id="QHkX6387ASyejE84PATi-191" value="&lt;span style=&quot;font-size: 25px;&quot;&gt;category&lt;/span&gt;" style="rounded=1;whiteSpace=wrap;html=1;" parent="1" vertex="1">
          <mxGeometry x="480" y="1725" width="170" height="60" as="geometry" />
        </mxCell>
        <mxCell id="QHkX6387ASyejE84PATi-192" value="&lt;span style=&quot;font-size: 25px;&quot;&gt;sample&lt;/span&gt;" style="rounded=1;whiteSpace=wrap;html=1;" parent="1" vertex="1">
          <mxGeometry x="480" y="2005" width="170" height="60" as="geometry" />
        </mxCell>
        <mxCell id="QHkX6387ASyejE84PATi-193" value="&lt;span style=&quot;font-size: 25px;&quot;&gt;product&lt;/span&gt;" style="rounded=1;whiteSpace=wrap;html=1;" parent="1" vertex="1">
          <mxGeometry x="480" y="1935" width="170" height="60" as="geometry" />
        </mxCell>
        <mxCell id="QHkX6387ASyejE84PATi-194" value="&lt;span style=&quot;font-size: 25px;&quot;&gt;member&lt;/span&gt;" style="rounded=1;whiteSpace=wrap;html=1;" parent="1" vertex="1">
          <mxGeometry x="480" y="1865" width="170" height="60" as="geometry" />
        </mxCell>
        <mxCell id="QHkX6387ASyejE84PATi-195" value="&lt;span style=&quot;font-size: 25px;&quot;&gt;wish&lt;/span&gt;" style="rounded=1;whiteSpace=wrap;html=1;" parent="1" vertex="1">
          <mxGeometry x="480" y="2215" width="170" height="60" as="geometry" />
        </mxCell>
        <mxCell id="QHkX6387ASyejE84PATi-196" value="&lt;span style=&quot;font-size: 25px;&quot;&gt;send&lt;/span&gt;" style="rounded=1;whiteSpace=wrap;html=1;" parent="1" vertex="1">
          <mxGeometry x="480" y="2145" width="170" height="60" as="geometry" />
        </mxCell>
        <mxCell id="QHkX6387ASyejE84PATi-197" value="&lt;span style=&quot;font-size: 25px;&quot;&gt;search&lt;/span&gt;" style="rounded=1;whiteSpace=wrap;html=1;" parent="1" vertex="1">
          <mxGeometry x="480" y="2075" width="170" height="60" as="geometry" />
        </mxCell>
        <mxCell id="QHkX6387ASyejE84PATi-200" value="" style="edgeStyle=elbowEdgeStyle;elbow=horizontal;endArrow=classic;html=1;rounded=0;fontSize=25;exitX=1;exitY=0.5;exitDx=0;exitDy=0;entryX=0;entryY=0.5;entryDx=0;entryDy=0;" parent="1" target="QHkX6387ASyejE84PATi-221" edge="1">
          <mxGeometry width="50" height="50" relative="1" as="geometry">
            <mxPoint x="650" y="1685.4099999999999" as="sourcePoint" />
            <mxPoint x="700" y="1685.4099999999999" as="targetPoint" />
          </mxGeometry>
        </mxCell>
        <mxCell id="QHkX6387ASyejE84PATi-203" value="&lt;span style=&quot;font-size: 25px;&quot;&gt;auth&lt;/span&gt;" style="rounded=1;whiteSpace=wrap;html=1;" parent="1" vertex="1">
          <mxGeometry x="480" y="2520" width="170" height="60" as="geometry" />
        </mxCell>
        <mxCell id="QHkX6387ASyejE84PATi-204" value="&lt;span style=&quot;font-size: 25px;&quot;&gt;main&lt;/span&gt;" style="rounded=1;whiteSpace=wrap;html=1;" parent="1" vertex="1">
          <mxGeometry x="480" y="2660" width="170" height="60" as="geometry" />
        </mxCell>
        <mxCell id="QHkX6387ASyejE84PATi-206" value="&lt;span style=&quot;font-size: 25px;&quot;&gt;category&lt;/span&gt;" style="rounded=1;whiteSpace=wrap;html=1;" parent="1" vertex="1">
          <mxGeometry x="480" y="2590" width="170" height="60" as="geometry" />
        </mxCell>
        <mxCell id="QHkX6387ASyejE84PATi-207" value="&lt;span style=&quot;font-size: 25px;&quot;&gt;sample&lt;/span&gt;" style="rounded=1;whiteSpace=wrap;html=1;" parent="1" vertex="1">
          <mxGeometry x="480" y="2870" width="170" height="60" as="geometry" />
        </mxCell>
        <mxCell id="QHkX6387ASyejE84PATi-208" value="&lt;span style=&quot;font-size: 25px;&quot;&gt;product&lt;/span&gt;" style="rounded=1;whiteSpace=wrap;html=1;" parent="1" vertex="1">
          <mxGeometry x="480" y="2800" width="170" height="60" as="geometry" />
        </mxCell>
        <mxCell id="QHkX6387ASyejE84PATi-209" value="&lt;span style=&quot;font-size: 25px;&quot;&gt;member&lt;/span&gt;" style="rounded=1;whiteSpace=wrap;html=1;" parent="1" vertex="1">
          <mxGeometry x="480" y="2730" width="170" height="60" as="geometry" />
        </mxCell>
        <mxCell id="QHkX6387ASyejE84PATi-210" value="&lt;span style=&quot;font-size: 25px;&quot;&gt;wish&lt;/span&gt;" style="rounded=1;whiteSpace=wrap;html=1;" parent="1" vertex="1">
          <mxGeometry x="480" y="3080" width="170" height="60" as="geometry" />
        </mxCell>
        <mxCell id="QHkX6387ASyejE84PATi-211" value="&lt;span style=&quot;font-size: 25px;&quot;&gt;send&lt;/span&gt;" style="rounded=1;whiteSpace=wrap;html=1;" parent="1" vertex="1">
          <mxGeometry x="480" y="3010" width="170" height="60" as="geometry" />
        </mxCell>
        <mxCell id="QHkX6387ASyejE84PATi-212" value="&lt;span style=&quot;font-size: 25px;&quot;&gt;search&lt;/span&gt;" style="rounded=1;whiteSpace=wrap;html=1;" parent="1" vertex="1">
          <mxGeometry x="480" y="2940" width="170" height="60" as="geometry" />
        </mxCell>
        <mxCell id="QHkX6387ASyejE84PATi-221" value="&lt;div style=&quot;text-align: left;&quot;&gt;AppBar.vue (LayoutBaseAppber)&lt;br&gt;&lt;/div&gt;" style="rounded=0;whiteSpace=wrap;html=1;fontSize=25;" parent="1" vertex="1">
          <mxGeometry x="700" y="1606" width="433" height="60" as="geometry" />
        </mxCell>
        <mxCell id="QHkX6387ASyejE84PATi-231" value="&lt;div style=&quot;text-align: left;&quot;&gt;Index.vue&lt;br&gt;&lt;/div&gt;" style="rounded=0;whiteSpace=wrap;html=1;fontSize=25;" parent="1" vertex="1">
          <mxGeometry x="700" y="1686" width="390" height="60" as="geometry" />
        </mxCell>
        <mxCell id="QHkX6387ASyejE84PATi-232" value="" style="edgeStyle=elbowEdgeStyle;elbow=horizontal;endArrow=classic;html=1;rounded=0;fontSize=25;entryX=0;entryY=0.5;entryDx=0;entryDy=0;" parent="1" target="QHkX6387ASyejE84PATi-231" edge="1">
          <mxGeometry width="50" height="50" relative="1" as="geometry">
            <mxPoint x="650" y="1686" as="sourcePoint" />
            <mxPoint x="710" y="1646" as="targetPoint" />
          </mxGeometry>
        </mxCell>
        <mxCell id="QHkX6387ASyejE84PATi-233" value="&lt;span style=&quot;font-size: 25px;&quot;&gt;appbars&lt;/span&gt;" style="rounded=1;whiteSpace=wrap;html=1;" parent="1" vertex="1">
          <mxGeometry x="700" y="1150" width="170" height="60" as="geometry" />
        </mxCell>
        <mxCell id="QHkX6387ASyejE84PATi-234" value="&lt;span style=&quot;font-size: 25px;&quot;&gt;footers&lt;/span&gt;" style="rounded=1;whiteSpace=wrap;html=1;" parent="1" vertex="1">
          <mxGeometry x="700" y="1300" width="170" height="60" as="geometry" />
        </mxCell>
        <mxCell id="QHkX6387ASyejE84PATi-235" value="&lt;span style=&quot;font-size: 25px;&quot;&gt;views&lt;/span&gt;" style="rounded=1;whiteSpace=wrap;html=1;" parent="1" vertex="1">
          <mxGeometry x="700" y="1380" width="170" height="60" as="geometry" />
        </mxCell>
        <mxCell id="QHkX6387ASyejE84PATi-236" value="&lt;div style=&quot;text-align: left;&quot;&gt;LayoutBaseAppber.vue&lt;/div&gt;" style="rounded=0;whiteSpace=wrap;html=1;fontSize=25;" parent="1" vertex="1">
          <mxGeometry x="920" y="1080" width="340" height="60" as="geometry" />
        </mxCell>
        <mxCell id="QHkX6387ASyejE84PATi-237" value="&lt;div style=&quot;text-align: left;&quot;&gt;LayoutSearchAppBar.vue&lt;/div&gt;" style="rounded=0;whiteSpace=wrap;html=1;fontSize=25;" parent="1" vertex="1">
          <mxGeometry x="920" y="1220" width="340" height="60" as="geometry" />
        </mxCell>
        <mxCell id="QHkX6387ASyejE84PATi-238" value="&lt;div style=&quot;text-align: left;&quot;&gt;LayoutMainAppBar.vue&lt;/div&gt;" style="rounded=0;whiteSpace=wrap;html=1;fontSize=25;" parent="1" vertex="1">
          <mxGeometry x="920" y="1150" width="340" height="60" as="geometry" />
        </mxCell>
        <mxCell id="QHkX6387ASyejE84PATi-239" value="&lt;div style=&quot;text-align: left;&quot;&gt;LayoutBaseFooter.vue&lt;/div&gt;" style="rounded=0;whiteSpace=wrap;html=1;fontSize=25;" parent="1" vertex="1">
          <mxGeometry x="920" y="1300" width="340" height="60" as="geometry" />
        </mxCell>
        <mxCell id="QHkX6387ASyejE84PATi-240" value="&lt;div style=&quot;text-align: left;&quot;&gt;LayoutBaseView.vue&lt;/div&gt;" style="rounded=0;whiteSpace=wrap;html=1;fontSize=25;" parent="1" vertex="1">
          <mxGeometry x="920" y="1380" width="340" height="60" as="geometry" />
        </mxCell>
        <mxCell id="QHkX6387ASyejE84PATi-241" value="&lt;div style=&quot;text-align: left;&quot;&gt;LayoutSearchWordView.vue&lt;/div&gt;" style="rounded=0;whiteSpace=wrap;html=1;fontSize=25;" parent="1" vertex="1">
          <mxGeometry x="920" y="1520" width="340" height="60" as="geometry" />
        </mxCell>
        <mxCell id="QHkX6387ASyejE84PATi-242" value="&lt;div style=&quot;text-align: left;&quot;&gt;LayoutScrollTopView.vue&lt;/div&gt;" style="rounded=0;whiteSpace=wrap;html=1;fontSize=25;" parent="1" vertex="1">
          <mxGeometry x="920" y="1450" width="340" height="60" as="geometry" />
        </mxCell>
        <mxCell id="QHkX6387ASyejE84PATi-244" value="" style="edgeStyle=elbowEdgeStyle;elbow=horizontal;endArrow=classic;html=1;rounded=0;fontSize=25;exitX=1;exitY=0.5;exitDx=0;exitDy=0;entryX=0;entryY=0.5;entryDx=0;entryDy=0;" parent="1" edge="1">
          <mxGeometry width="50" height="50" relative="1" as="geometry">
            <mxPoint x="870" y="1159.4099999999999" as="sourcePoint" />
            <mxPoint x="920" y="1110" as="targetPoint" />
          </mxGeometry>
        </mxCell>
        <mxCell id="QHkX6387ASyejE84PATi-247" value="" style="edgeStyle=elbowEdgeStyle;elbow=horizontal;endArrow=classic;html=1;rounded=0;fontSize=25;exitX=1;exitY=0.5;exitDx=0;exitDy=0;entryX=0;entryY=0.5;entryDx=0;entryDy=0;" parent="1" source="QHkX6387ASyejE84PATi-233" target="QHkX6387ASyejE84PATi-238" edge="1">
          <mxGeometry width="50" height="50" relative="1" as="geometry">
            <mxPoint x="879.9999999999995" y="1169.4099999999999" as="sourcePoint" />
            <mxPoint x="929.9999999999995" y="1120" as="targetPoint" />
          </mxGeometry>
        </mxCell>
        <mxCell id="QHkX6387ASyejE84PATi-248" value="" style="edgeStyle=elbowEdgeStyle;elbow=horizontal;endArrow=classic;html=1;rounded=0;fontSize=25;exitX=1;exitY=0.75;exitDx=0;exitDy=0;entryX=0;entryY=0.5;entryDx=0;entryDy=0;" parent="1" source="QHkX6387ASyejE84PATi-233" target="QHkX6387ASyejE84PATi-237" edge="1">
          <mxGeometry width="50" height="50" relative="1" as="geometry">
            <mxPoint x="880.0000000000005" y="1190" as="sourcePoint" />
            <mxPoint x="929.9999999999995" y="1190" as="targetPoint" />
          </mxGeometry>
        </mxCell>
        <mxCell id="QHkX6387ASyejE84PATi-249" value="" style="edgeStyle=elbowEdgeStyle;elbow=horizontal;endArrow=classic;html=1;rounded=0;fontSize=25;exitX=1;exitY=0.5;exitDx=0;exitDy=0;entryX=0;entryY=0.5;entryDx=0;entryDy=0;" parent="1" source="QHkX6387ASyejE84PATi-234" target="QHkX6387ASyejE84PATi-239" edge="1">
          <mxGeometry width="50" height="50" relative="1" as="geometry">
            <mxPoint x="890.0000000000005" y="1200" as="sourcePoint" />
            <mxPoint x="939.9999999999995" y="1200" as="targetPoint" />
          </mxGeometry>
        </mxCell>
        <mxCell id="QHkX6387ASyejE84PATi-250" value="" style="edgeStyle=elbowEdgeStyle;elbow=horizontal;endArrow=classic;html=1;rounded=0;fontSize=25;exitX=1;exitY=0.25;exitDx=0;exitDy=0;entryX=0;entryY=0.25;entryDx=0;entryDy=0;" parent="1" source="QHkX6387ASyejE84PATi-235" target="QHkX6387ASyejE84PATi-240" edge="1">
          <mxGeometry width="50" height="50" relative="1" as="geometry">
            <mxPoint x="880.0000000000005" y="1340" as="sourcePoint" />
            <mxPoint x="910" y="1400" as="targetPoint" />
          </mxGeometry>
        </mxCell>
        <mxCell id="QHkX6387ASyejE84PATi-251" value="" style="edgeStyle=elbowEdgeStyle;elbow=horizontal;endArrow=classic;html=1;rounded=0;fontSize=25;exitX=1;exitY=0.5;exitDx=0;exitDy=0;entryX=0;entryY=0.5;entryDx=0;entryDy=0;" parent="1" source="QHkX6387ASyejE84PATi-235" target="QHkX6387ASyejE84PATi-242" edge="1">
          <mxGeometry width="50" height="50" relative="1" as="geometry">
            <mxPoint x="890.0000000000005" y="1350" as="sourcePoint" />
            <mxPoint x="939.9999999999995" y="1350" as="targetPoint" />
            <Array as="points">
              <mxPoint x="900" y="1450" />
            </Array>
          </mxGeometry>
        </mxCell>
        <mxCell id="QHkX6387ASyejE84PATi-252" value="" style="edgeStyle=elbowEdgeStyle;elbow=horizontal;endArrow=classic;html=1;rounded=0;fontSize=25;entryX=0;entryY=0.5;entryDx=0;entryDy=0;exitX=1;exitY=0.75;exitDx=0;exitDy=0;" parent="1" source="QHkX6387ASyejE84PATi-235" target="QHkX6387ASyejE84PATi-241" edge="1">
          <mxGeometry width="50" height="50" relative="1" as="geometry">
            <mxPoint x="810" y="1470" as="sourcePoint" />
            <mxPoint x="929.9999999999995" y="1490" as="targetPoint" />
          </mxGeometry>
        </mxCell>
        <mxCell id="QHkX6387ASyejE84PATi-254" value="" style="edgeStyle=elbowEdgeStyle;elbow=horizontal;endArrow=classic;html=1;rounded=0;fontSize=25;exitX=1;exitY=0.25;exitDx=0;exitDy=0;entryX=0;entryY=0.5;entryDx=0;entryDy=0;" parent="1" target="QHkX6387ASyejE84PATi-233" edge="1">
          <mxGeometry width="50" height="50" relative="1" as="geometry">
            <mxPoint x="650.0000000000005" y="1225" as="sourcePoint" />
            <mxPoint x="699.9999999999995" y="1225" as="targetPoint" />
          </mxGeometry>
        </mxCell>
        <mxCell id="QHkX6387ASyejE84PATi-255" value="" style="edgeStyle=elbowEdgeStyle;elbow=horizontal;endArrow=classic;html=1;rounded=0;fontSize=25;exitX=1;exitY=0.5;exitDx=0;exitDy=0;entryX=0;entryY=0.5;entryDx=0;entryDy=0;" parent="1" target="QHkX6387ASyejE84PATi-234" edge="1">
          <mxGeometry width="50" height="50" relative="1" as="geometry">
            <mxPoint x="650.0000000000005" y="1240" as="sourcePoint" />
            <mxPoint x="699.9999999999995" y="1310" as="targetPoint" />
            <Array as="points">
              <mxPoint x="680" y="1280" />
            </Array>
          </mxGeometry>
        </mxCell>
        <mxCell id="QHkX6387ASyejE84PATi-256" value="" style="edgeStyle=elbowEdgeStyle;elbow=horizontal;endArrow=classic;html=1;rounded=0;fontSize=25;entryX=0;entryY=0.5;entryDx=0;entryDy=0;exitX=1;exitY=0.75;exitDx=0;exitDy=0;" parent="1" target="QHkX6387ASyejE84PATi-235" edge="1">
          <mxGeometry width="50" height="50" relative="1" as="geometry">
            <mxPoint x="650.0000000000005" y="1255" as="sourcePoint" />
            <mxPoint x="699.9999999999995" y="1380" as="targetPoint" />
          </mxGeometry>
        </mxCell>
        <mxCell id="QHkX6387ASyejE84PATi-257" value="" style="edgeStyle=elbowEdgeStyle;elbow=horizontal;endArrow=classic;html=1;rounded=0;fontSize=25;entryX=0;entryY=0.5;entryDx=0;entryDy=0;exitX=1;exitY=0.75;exitDx=0;exitDy=0;" parent="1" target="QHkX6387ASyejE84PATi-190" edge="1">
          <mxGeometry width="50" height="50" relative="1" as="geometry">
            <mxPoint x="380.00000000000045" y="1241" as="sourcePoint" />
            <mxPoint x="430" y="1396" as="targetPoint" />
          </mxGeometry>
        </mxCell>
        <mxCell id="QHkX6387ASyejE84PATi-258" value="&lt;div style=&quot;text-align: left;&quot;&gt;index.js&lt;br&gt;&lt;/div&gt;" style="rounded=0;whiteSpace=wrap;html=1;fontSize=25;" parent="1" vertex="1">
          <mxGeometry x="685" y="2520" width="195" height="60" as="geometry" />
        </mxCell>
        <mxCell id="QHkX6387ASyejE84PATi-259" value="" style="edgeStyle=elbowEdgeStyle;elbow=horizontal;endArrow=classic;html=1;rounded=0;fontSize=25;entryX=0;entryY=0.5;entryDx=0;entryDy=0;" parent="1" target="QHkX6387ASyejE84PATi-258" edge="1">
          <mxGeometry width="50" height="50" relative="1" as="geometry">
            <mxPoint x="650" y="2550" as="sourcePoint" />
            <mxPoint x="700" y="2500" as="targetPoint" />
          </mxGeometry>
        </mxCell>
        <mxCell id="QHkX6387ASyejE84PATi-260" value="&lt;div style=&quot;text-align: left;&quot;&gt;index.js&lt;br&gt;&lt;/div&gt;" style="rounded=0;whiteSpace=wrap;html=1;fontSize=25;" parent="1" vertex="1">
          <mxGeometry x="480" y="3160" width="195" height="60" as="geometry" />
        </mxCell>
        <mxCell id="QHkX6387ASyejE84PATi-261" value="&lt;div style=&quot;text-align: left;&quot;&gt;index.js&lt;br&gt;&lt;/div&gt;" style="rounded=0;whiteSpace=wrap;html=1;fontSize=25;" parent="1" vertex="1">
          <mxGeometry x="480" y="3320" width="195" height="60" as="geometry" />
        </mxCell>
        <mxCell id="QHkX6387ASyejE84PATi-262" value="" style="edgeStyle=elbowEdgeStyle;elbow=horizontal;endArrow=classic;html=1;rounded=0;fontSize=25;exitX=1;exitY=0.5;exitDx=0;exitDy=0;entryX=0;entryY=0.5;entryDx=0;entryDy=0;" parent="1" source="QHkX6387ASyejE84PATi-143" target="QHkX6387ASyejE84PATi-261" edge="1">
          <mxGeometry width="50" height="50" relative="1" as="geometry">
            <mxPoint x="440" y="3350" as="sourcePoint" />
            <mxPoint x="460" y="3350" as="targetPoint" />
          </mxGeometry>
        </mxCell>
        <mxCell id="QHkX6387ASyejE84PATi-264" value="&lt;span style=&quot;font-size: 25px;&quot;&gt;styles&lt;/span&gt;" style="rounded=1;whiteSpace=wrap;html=1;" parent="1" vertex="1">
          <mxGeometry x="210" y="3450" width="170" height="60" as="geometry" />
        </mxCell>
        <mxCell id="QHkX6387ASyejE84PATi-265" value="&lt;div style=&quot;text-align: left;&quot;&gt;varialbes.scss&lt;br&gt;&lt;/div&gt;" style="rounded=0;whiteSpace=wrap;html=1;fontSize=25;" parent="1" vertex="1">
          <mxGeometry x="480" y="3450" width="195" height="60" as="geometry" />
        </mxCell>
        <mxCell id="QHkX6387ASyejE84PATi-266" value="" style="edgeStyle=elbowEdgeStyle;elbow=horizontal;endArrow=classic;html=1;rounded=0;fontSize=25;exitX=1;exitY=0.5;exitDx=0;exitDy=0;entryX=0;entryY=0.5;entryDx=0;entryDy=0;" parent="1" source="QHkX6387ASyejE84PATi-264" target="QHkX6387ASyejE84PATi-265" edge="1">
          <mxGeometry width="50" height="50" relative="1" as="geometry">
            <mxPoint x="440" y="3480" as="sourcePoint" />
            <mxPoint x="460" y="3480" as="targetPoint" />
          </mxGeometry>
        </mxCell>
        <mxCell id="QHkX6387ASyejE84PATi-267" value="&lt;span style=&quot;font-size: 25px;&quot;&gt;auth&lt;/span&gt;" style="rounded=1;whiteSpace=wrap;html=1;" parent="1" vertex="1">
          <mxGeometry x="480" y="3570" width="170" height="60" as="geometry" />
        </mxCell>
        <mxCell id="QHkX6387ASyejE84PATi-268" value="&lt;span style=&quot;font-size: 25px;&quot;&gt;main&lt;/span&gt;" style="rounded=1;whiteSpace=wrap;html=1;" parent="1" vertex="1">
          <mxGeometry x="480" y="3710" width="170" height="60" as="geometry" />
        </mxCell>
        <mxCell id="QHkX6387ASyejE84PATi-269" value="&lt;span style=&quot;font-size: 25px;&quot;&gt;category&lt;/span&gt;" style="rounded=1;whiteSpace=wrap;html=1;" parent="1" vertex="1">
          <mxGeometry x="480" y="3640" width="170" height="60" as="geometry" />
        </mxCell>
        <mxCell id="QHkX6387ASyejE84PATi-270" value="&lt;span style=&quot;font-size: 25px;&quot;&gt;sample&lt;/span&gt;" style="rounded=1;whiteSpace=wrap;html=1;" parent="1" vertex="1">
          <mxGeometry x="480" y="3920" width="170" height="60" as="geometry" />
        </mxCell>
        <mxCell id="QHkX6387ASyejE84PATi-271" value="&lt;span style=&quot;font-size: 25px;&quot;&gt;product&lt;/span&gt;" style="rounded=1;whiteSpace=wrap;html=1;" parent="1" vertex="1">
          <mxGeometry x="480" y="3850" width="170" height="60" as="geometry" />
        </mxCell>
        <mxCell id="QHkX6387ASyejE84PATi-272" value="&lt;span style=&quot;font-size: 25px;&quot;&gt;member&lt;/span&gt;" style="rounded=1;whiteSpace=wrap;html=1;" parent="1" vertex="1">
          <mxGeometry x="480" y="3780" width="170" height="60" as="geometry" />
        </mxCell>
        <mxCell id="QHkX6387ASyejE84PATi-273" value="&lt;span style=&quot;font-size: 25px;&quot;&gt;wish&lt;/span&gt;" style="rounded=1;whiteSpace=wrap;html=1;" parent="1" vertex="1">
          <mxGeometry x="480" y="4130" width="170" height="60" as="geometry" />
        </mxCell>
        <mxCell id="QHkX6387ASyejE84PATi-274" value="&lt;span style=&quot;font-size: 25px;&quot;&gt;send&lt;/span&gt;" style="rounded=1;whiteSpace=wrap;html=1;" parent="1" vertex="1">
          <mxGeometry x="480" y="4060" width="170" height="60" as="geometry" />
        </mxCell>
        <mxCell id="QHkX6387ASyejE84PATi-275" value="&lt;span style=&quot;font-size: 25px;&quot;&gt;search&lt;/span&gt;" style="rounded=1;whiteSpace=wrap;html=1;" parent="1" vertex="1">
          <mxGeometry x="480" y="3990" width="170" height="60" as="geometry" />
        </mxCell>
        <mxCell id="QHkX6387ASyejE84PATi-276" value="&lt;div style=&quot;text-align: left;&quot;&gt;~~view.vue&lt;br&gt;&lt;/div&gt;" style="rounded=0;whiteSpace=wrap;html=1;fontSize=25;" parent="1" vertex="1">
          <mxGeometry x="685" y="3570" width="195" height="60" as="geometry" />
        </mxCell>
        <mxCell id="QHkX6387ASyejE84PATi-277" value="" style="edgeStyle=elbowEdgeStyle;elbow=horizontal;endArrow=classic;html=1;rounded=0;fontSize=25;entryX=0;entryY=0.5;entryDx=0;entryDy=0;" parent="1" target="QHkX6387ASyejE84PATi-276" edge="1">
          <mxGeometry width="50" height="50" relative="1" as="geometry">
            <mxPoint x="650" y="3600" as="sourcePoint" />
            <mxPoint x="700" y="3550" as="targetPoint" />
          </mxGeometry>
        </mxCell>
        <mxCell id="QHkX6387ASyejE84PATi-278" value="&lt;div style=&quot;text-align: left;&quot;&gt;index.js&lt;br&gt;&lt;/div&gt;" style="rounded=0;whiteSpace=wrap;html=1;fontSize=25;" parent="1" vertex="1">
          <mxGeometry x="480" y="4210" width="195" height="60" as="geometry" />
        </mxCell>
        <mxCell id="QHkX6387ASyejE84PATi-279" value="&lt;div style=&quot;text-align: left;&quot;&gt;main.js&lt;br&gt;&lt;/div&gt;" style="rounded=0;whiteSpace=wrap;html=1;fontSize=25;" parent="1" vertex="1">
          <mxGeometry x="210" y="4380" width="195" height="60" as="geometry" />
        </mxCell>
        <mxCell id="QHkX6387ASyejE84PATi-280" value="" style="edgeStyle=elbowEdgeStyle;elbow=horizontal;endArrow=classic;html=1;rounded=0;fontSize=25;entryX=0;entryY=0.5;entryDx=0;entryDy=0;" parent="1" target="QHkX6387ASyejE84PATi-195" edge="1">
          <mxGeometry width="50" height="50" relative="1" as="geometry">
            <mxPoint x="240" y="1276" as="sourcePoint" />
            <mxPoint x="490" y="1250" as="targetPoint" />
            <Array as="points">
              <mxPoint x="240" y="1760" />
            </Array>
          </mxGeometry>
        </mxCell>
        <mxCell id="QHkX6387ASyejE84PATi-281" value="" style="edgeStyle=elbowEdgeStyle;elbow=horizontal;endArrow=classic;html=1;rounded=0;fontSize=25;entryX=0;entryY=0.5;entryDx=0;entryDy=0;exitX=0.25;exitY=1;exitDx=0;exitDy=0;" parent="1" source="QHkX6387ASyejE84PATi-140" target="QHkX6387ASyejE84PATi-196" edge="1">
          <mxGeometry width="50" height="50" relative="1" as="geometry">
            <mxPoint x="300" y="1330" as="sourcePoint" />
            <mxPoint x="500" y="1260" as="targetPoint" />
            <Array as="points">
              <mxPoint x="253" y="1740" />
            </Array>
          </mxGeometry>
        </mxCell>
        <mxCell id="QHkX6387ASyejE84PATi-282" value="" style="edgeStyle=elbowEdgeStyle;elbow=horizontal;endArrow=classic;html=1;rounded=0;fontSize=25;entryX=0;entryY=0.5;entryDx=0;entryDy=0;" parent="1" source="QHkX6387ASyejE84PATi-140" target="QHkX6387ASyejE84PATi-197" edge="1">
          <mxGeometry width="50" height="50" relative="1" as="geometry">
            <mxPoint x="262.5" y="1286" as="sourcePoint" />
            <mxPoint x="490" y="2185" as="targetPoint" />
            <Array as="points">
              <mxPoint x="270" y="1530" />
              <mxPoint x="270" y="1700" />
            </Array>
          </mxGeometry>
        </mxCell>
        <mxCell id="QHkX6387ASyejE84PATi-283" value="" style="edgeStyle=elbowEdgeStyle;elbow=horizontal;endArrow=classic;html=1;rounded=0;fontSize=25;entryX=0;entryY=0.5;entryDx=0;entryDy=0;exitX=0.5;exitY=1;exitDx=0;exitDy=0;" parent="1" source="QHkX6387ASyejE84PATi-140" target="QHkX6387ASyejE84PATi-192" edge="1">
          <mxGeometry width="50" height="50" relative="1" as="geometry">
            <mxPoint x="280" y="1286" as="sourcePoint" />
            <mxPoint x="490" y="2115" as="targetPoint" />
            <Array as="points">
              <mxPoint x="295" y="1700" />
              <mxPoint x="280" y="1710" />
            </Array>
          </mxGeometry>
        </mxCell>
        <mxCell id="QHkX6387ASyejE84PATi-284" value="" style="edgeStyle=elbowEdgeStyle;elbow=horizontal;endArrow=classic;html=1;rounded=0;fontSize=25;entryX=0;entryY=0.5;entryDx=0;entryDy=0;exitX=0.618;exitY=1.011;exitDx=0;exitDy=0;exitPerimeter=0;" parent="1" source="QHkX6387ASyejE84PATi-140" target="QHkX6387ASyejE84PATi-193" edge="1">
          <mxGeometry width="50" height="50" relative="1" as="geometry">
            <mxPoint x="310" y="1270" as="sourcePoint" />
            <mxPoint x="490" y="2045" as="targetPoint" />
            <Array as="points">
              <mxPoint x="310" y="1610" />
              <mxPoint x="290" y="1720" />
            </Array>
          </mxGeometry>
        </mxCell>
      </root>
    </mxGraphModel>
  </diagram>
</mxfile>
